<svg id="svg" version="1.1" xmlns="http://www.w3.org/2000/svg" xmlns:xlink="http://www.w3.org/1999/xlink" width="400" height="126.57777777777778" viewBox="0, 0, 400,126.57777777777778"><g id="svgg"><path id="path0" d="M220.833 31.633 C 220.833 31.707,220.899 31.838,220.980 31.925 C 221.060 32.012,221.596 32.983,222.169 34.083 C 222.743 35.183,223.431 36.479,223.697 36.962 C 223.963 37.446,224.128 37.933,224.064 38.046 C 223.999 38.158,224.007 38.195,224.082 38.128 C 224.299 37.931,225.580 40.122,227.807 44.500 C 228.949 46.746,230.065 48.921,230.286 49.333 C 230.507 49.746,230.929 50.533,231.224 51.083 C 231.518 51.633,232.162 52.833,232.653 53.750 C 233.144 54.667,233.824 55.942,234.164 56.583 C 235.984 60.022,236.603 61.184,237.135 62.167 C 237.458 62.762,238.019 63.813,238.383 64.500 C 239.972 67.508,240.478 68.454,240.798 69.023 C 240.986 69.357,241.624 70.557,242.216 71.690 C 242.807 72.823,243.461 74.050,243.667 74.417 C 243.874 74.783,244.530 76.021,245.125 77.167 C 245.719 78.313,246.262 79.325,246.331 79.417 C 246.399 79.508,246.867 80.371,247.370 81.333 C 247.873 82.296,248.607 83.683,249.001 84.417 C 249.395 85.150,250.033 86.350,250.419 87.083 C 250.805 87.817,251.484 89.092,251.927 89.917 C 253.378 92.618,253.797 93.404,254.283 94.333 C 254.547 94.837,255.104 95.888,255.521 96.667 L 256.280 98.083 255.400 99.750 C 254.282 101.868,253.939 102.517,252.799 104.667 C 252.288 105.629,251.460 107.204,250.958 108.167 C 250.456 109.129,249.746 110.479,249.380 111.167 C 249.014 111.854,248.357 113.092,247.920 113.917 C 247.483 114.742,246.807 116.017,246.419 116.750 C 246.030 117.483,245.205 119.058,244.585 120.250 C 243.966 121.442,243.312 122.660,243.132 122.958 C 242.679 123.711,242.225 123.675,251.750 123.627 L 260.250 123.583 261.512 121.083 C 262.207 119.708,263.640 116.896,264.699 114.833 C 265.757 112.771,267.730 108.908,269.083 106.250 C 273.508 97.554,276.097 92.475,277.917 88.917 C 278.902 86.992,280.891 83.092,282.337 80.250 C 283.783 77.408,285.961 73.133,287.178 70.750 C 290.729 63.790,293.843 57.681,295.800 53.833 C 296.802 51.862,298.505 48.525,299.584 46.417 C 300.663 44.308,302.592 40.521,303.872 38.000 C 305.152 35.479,306.247 33.342,306.305 33.250 C 306.364 33.158,306.578 32.727,306.781 32.292 L 307.151 31.500 298.854 31.500 L 290.556 31.500 289.797 33.042 C 288.185 36.318,286.634 39.428,286.493 39.667 C 286.412 39.804,286.204 40.217,286.032 40.583 C 285.860 40.950,284.968 42.750,284.050 44.583 C 283.132 46.417,278.441 55.822,273.626 65.483 L 264.871 83.050 263.838 80.983 C 263.270 79.847,262.736 78.804,262.651 78.667 C 262.566 78.529,262.384 78.154,262.246 77.833 C 262.108 77.512,261.923 77.137,261.835 77.000 C 261.673 76.747,258.545 70.478,257.968 69.250 C 257.796 68.883,257.589 68.471,257.509 68.333 C 257.428 68.196,256.605 66.546,255.680 64.667 C 254.754 62.788,253.930 61.137,253.848 61.000 C 253.686 60.730,251.677 56.709,244.041 41.375 L 239.124 31.500 229.979 31.500 C 224.949 31.500,220.833 31.560,220.833 31.633 " stroke="none" fill="#83bb14" fill-rule="evenodd"></path><path id="path1" d="M37.750 28.918 C 36.283 29.030,34.633 29.202,34.083 29.300 C 33.533 29.399,32.521 29.567,31.833 29.674 C 29.706 30.004,25.655 31.109,23.917 31.833 C 23.642 31.948,23.267 32.101,23.083 32.174 C 22.517 32.399,20.764 33.172,20.500 33.313 C 13.346 37.140,8.388 42.885,5.954 50.167 C 3.910 56.281,3.045 65.637,3.989 71.417 C 4.094 72.058,4.262 73.108,4.363 73.750 C 4.583 75.149,5.359 78.289,5.743 79.333 C 5.895 79.746,6.083 80.283,6.161 80.528 C 7.434 84.526,11.481 90.113,15.000 92.732 C 15.504 93.108,15.954 93.459,16.000 93.513 C 16.114 93.648,17.930 94.815,18.750 95.280 C 22.231 97.256,26.998 98.923,31.250 99.653 C 40.106 101.171,51.189 100.966,57.250 99.171 C 57.525 99.089,58.087 98.932,58.500 98.821 C 65.398 96.963,72.023 92.539,74.828 87.917 C 75.050 87.550,75.274 87.212,75.325 87.167 C 76.177 86.395,78.333 80.896,78.333 79.492 L 78.333 79.000 70.369 79.000 L 62.405 79.000 61.911 80.042 C 60.716 82.559,58.385 85.335,56.406 86.597 C 56.137 86.769,55.879 86.948,55.833 86.996 C 55.148 87.713,50.953 89.433,48.917 89.831 C 48.367 89.938,47.617 90.102,47.250 90.195 C 45.018 90.760,39.380 90.527,36.042 89.732 C 31.475 88.646,26.527 85.551,24.080 82.250 C 23.808 81.883,23.532 81.543,23.466 81.495 C 22.036 80.426,19.667 73.497,19.667 70.383 L 19.667 69.001 49.792 68.959 L 79.917 68.917 79.965 65.083 C 80.023 60.521,79.779 55.669,79.415 54.167 C 77.827 47.602,74.570 41.608,70.720 38.162 C 66.156 34.078,61.680 31.724,55.417 30.114 C 54.465 29.869,53.876 29.750,51.583 29.334 C 48.249 28.729,42.486 28.556,37.750 28.918 M47.250 39.582 C 47.983 39.711,48.808 39.886,49.083 39.972 C 49.358 40.058,49.921 40.221,50.333 40.335 C 50.746 40.450,51.308 40.635,51.583 40.747 C 51.858 40.858,52.346 41.050,52.667 41.173 C 52.987 41.296,53.530 41.570,53.872 41.781 C 54.214 41.993,54.534 42.167,54.584 42.167 C 54.728 42.167,56.078 43.071,56.139 43.208 C 56.169 43.277,56.264 43.333,56.349 43.333 C 56.769 43.333,60.333 46.898,60.333 47.318 C 60.333 47.403,60.395 47.497,60.471 47.528 C 61.505 47.944,63.543 53.728,63.765 56.875 L 63.879 58.500 41.914 58.500 L 19.950 58.500 20.063 56.875 C 20.396 52.107,23.127 47.108,26.888 44.385 C 27.362 44.042,27.787 43.718,27.833 43.665 C 28.193 43.249,31.784 41.318,32.797 40.996 C 33.046 40.917,33.587 40.728,34.000 40.576 C 37.543 39.271,43.107 38.853,47.250 39.582 " stroke="none" fill="#e4343b" fill-rule="evenodd"></path><path id="path2" d="M321.333 59.167 L 321.333 66.667 313.750 66.667 L 306.167 66.667 306.167 69.333 L 306.167 72.000 313.750 72.000 L 321.333 72.000 321.333 79.583 L 321.333 87.167 324.000 87.167 L 326.667 87.167 326.667 79.583 L 326.667 72.000 334.250 72.000 L 341.833 72.000 341.833 69.333 L 341.833 66.667 334.250 66.667 L 326.667 66.667 326.667 59.167 L 326.667 51.667 324.000 51.667 L 321.333 51.667 321.333 59.167 M361.167 59.167 L 361.167 66.667 353.583 66.667 L 346.000 66.667 346.000 69.333 L 346.000 72.000 353.583 72.000 L 361.167 72.000 361.167 79.583 L 361.167 87.167 363.833 87.167 L 366.500 87.167 366.500 79.583 L 366.500 72.000 374.083 72.000 L 381.667 72.000 381.667 69.333 L 381.667 66.667 374.083 66.667 L 366.500 66.667 366.500 59.167 L 366.500 51.667 363.833 51.667 L 361.167 51.667 361.167 59.167 M79.885 58.583 C 79.886 59.133,79.917 59.338,79.954 59.039 C 79.991 58.739,79.990 58.289,79.952 58.039 C 79.914 57.788,79.884 58.033,79.885 58.583 " stroke="none" fill="#9334b3" fill-rule="evenodd"></path><path id="path3" d="M190.917 28.920 C 189.358 29.032,187.558 29.210,186.917 29.315 C 186.275 29.419,185.225 29.585,184.583 29.682 C 183.531 29.842,182.969 29.965,180.750 30.520 C 172.059 32.695,166.043 37.393,163.170 44.250 C 162.707 45.355,162.167 47.801,162.167 48.792 L 162.167 49.333 170.333 49.333 L 178.500 49.333 178.502 48.875 C 178.513 46.942,180.818 43.700,183.333 42.082 C 186.654 39.946,189.594 39.252,195.333 39.252 C 199.769 39.252,200.468 39.342,203.833 40.351 C 210.536 42.358,214.000 47.015,214.000 54.015 L 214.000 56.333 203.375 56.341 C 190.809 56.350,185.167 56.566,182.083 57.157 C 181.625 57.244,180.688 57.401,180.000 57.504 C 179.313 57.608,178.262 57.804,177.667 57.940 C 175.482 58.439,174.451 58.696,174.104 58.825 C 173.910 58.898,173.450 59.047,173.083 59.156 C 172.301 59.388,170.760 59.975,169.750 60.424 C 162.455 63.673,158.769 68.046,157.662 74.762 C 157.558 75.397,157.403 76.231,157.319 76.615 C 156.991 78.119,157.267 82.382,157.804 84.083 C 157.890 84.358,158.060 84.921,158.181 85.333 C 159.282 89.080,162.183 93.101,165.385 95.319 C 165.586 95.458,165.895 95.706,166.073 95.869 C 166.251 96.033,166.454 96.167,166.524 96.167 C 166.594 96.167,166.936 96.360,167.284 96.597 C 171.256 99.303,178.727 101.085,186.083 101.082 C 198.428 101.078,209.304 96.846,214.731 89.935 C 215.341 89.158,215.335 89.147,215.423 91.105 C 215.464 92.010,215.583 94.044,215.688 95.625 L 215.878 98.500 223.064 98.500 L 230.250 98.501 230.203 97.459 C 230.177 96.886,230.046 95.091,229.911 93.470 C 229.715 91.102,229.667 86.759,229.667 71.317 C 229.667 59.263,229.604 51.702,229.499 51.014 C 228.875 46.934,228.524 45.814,226.883 42.667 C 225.221 39.480,224.737 38.745,223.295 37.229 C 217.223 30.843,205.594 27.858,190.917 28.920 M213.999 69.292 C 213.995 76.484,211.861 81.436,206.989 85.558 C 200.849 90.751,187.797 92.384,180.195 88.909 C 179.446 88.567,178.833 88.241,178.833 88.184 C 178.833 88.128,178.611 87.983,178.339 87.863 C 175.748 86.716,173.500 82.395,173.500 78.562 C 173.500 73.061,176.911 69.717,184.083 68.185 C 186.773 67.611,187.405 67.501,188.917 67.342 C 189.833 67.246,191.371 67.081,192.333 66.975 C 194.602 66.727,200.214 66.565,207.875 66.529 L 214.000 66.500 213.999 69.292 " stroke="none" fill="#f3ac04" fill-rule="evenodd"></path><path id="path4" d="M79.850 44.790 C 79.871 83.775,79.807 95.841,79.567 97.792 L 79.480 98.500 87.138 98.500 L 94.796 98.500 94.894 97.958 C 94.948 97.660,95.082 95.673,95.192 93.542 C 95.301 91.410,95.453 89.667,95.529 89.667 C 95.605 89.667,95.667 89.748,95.667 89.847 C 95.667 90.020,98.373 92.773,99.131 93.372 C 100.222 94.234,101.821 95.333,101.982 95.333 C 102.083 95.333,102.167 95.398,102.167 95.477 C 102.167 95.596,103.256 96.165,107.041 98.026 C 107.306 98.156,108.745 98.635,110.667 99.234 C 112.005 99.651,114.647 100.222,116.667 100.530 C 118.615 100.828,127.281 100.827,129.083 100.530 C 137.713 99.105,143.733 96.164,149.083 90.757 C 151.743 88.070,153.624 85.434,155.154 82.250 C 156.676 79.084,157.067 77.939,157.485 75.417 C 157.667 74.317,158.057 72.667,158.352 71.750 L 158.888 70.083 158.898 64.917 C 158.907 60.642,158.859 59.505,158.620 58.333 C 158.461 57.554,158.251 56.504,158.152 56.000 C 157.280 51.523,154.016 44.324,151.792 41.970 C 151.677 41.849,151.284 41.375,150.918 40.916 C 150.039 39.815,147.958 37.731,146.917 36.908 C 146.458 36.546,146.046 36.201,146.000 36.142 C 144.956 34.791,137.942 31.362,134.083 30.316 C 129.478 29.068,120.514 28.565,116.333 29.319 C 115.737 29.427,114.763 29.595,114.167 29.693 C 108.697 30.594,103.414 32.842,99.500 35.935 C 98.160 36.994,96.899 38.209,96.246 39.070 L 95.750 39.724 95.667 20.987 L 95.583 2.250 87.705 2.207 L 79.827 2.163 79.850 44.790 M123.274 39.922 C 127.240 40.697,129.783 41.677,132.497 43.478 C 133.917 44.421,137.500 47.753,137.500 48.131 C 137.500 48.242,137.563 48.333,137.640 48.333 C 137.718 48.333,137.922 48.596,138.095 48.917 C 138.268 49.237,138.467 49.500,138.538 49.500 C 138.609 49.500,138.667 49.588,138.667 49.695 C 138.667 49.803,138.771 50.009,138.898 50.154 C 139.418 50.747,140.914 53.951,141.316 55.333 C 141.436 55.746,141.631 56.383,141.750 56.750 C 143.457 62.038,143.083 69.438,140.803 75.500 C 139.444 79.112,136.357 83.211,133.273 85.497 C 132.527 86.050,131.822 86.580,131.706 86.676 C 130.989 87.270,127.823 88.679,126.000 89.215 C 123.399 89.979,122.575 90.084,119.167 90.079 C 114.780 90.073,112.538 89.642,109.333 88.190 C 108.921 88.003,108.396 87.768,108.167 87.668 C 107.513 87.382,105.903 86.356,104.763 85.500 C 101.669 83.175,98.132 78.000,97.017 74.167 C 96.897 73.754,96.701 73.117,96.581 72.750 C 96.461 72.383,96.274 71.558,96.164 70.917 C 96.055 70.275,95.899 69.390,95.816 68.950 C 95.572 67.644,95.636 62.078,95.916 60.319 C 97.473 50.529,102.926 43.619,111.333 40.782 C 112.109 40.520,112.915 40.329,114.917 39.933 C 116.587 39.602,121.599 39.595,123.274 39.922 " stroke="none" fill="#0464d4" fill-rule="evenodd"></path></g></svg>