<svg id="svg" version="1.1" xmlns="http://www.w3.org/2000/svg" xmlns:xlink="http://www.w3.org/1999/xlink" width="16" height="16" viewBox="0, 0, 400,400"><g id="svgg"><path id="path0" d="M318.750 206.759 C 311.867 207.409,304.928 208.889,299.250 210.919 C 264.542 223.327,244.840 260.161,253.897 295.708 C 254.364 297.541,254.912 299.397,255.114 299.833 C 255.316 300.269,255.810 301.525,256.212 302.625 C 258.634 309.252,262.849 316.706,267.195 322.051 C 268.123 323.192,269.306 324.708,269.825 325.420 C 273.406 330.340,283.593 338.059,291.875 342.126 C 332.794 362.224,382.171 341.349,395.090 298.490 C 398.982 285.577,398.982 270.673,395.090 257.760 C 385.272 225.189,352.866 203.540,318.750 206.759 " stroke="none" fill="#fb0404" fill-rule="evenodd"></path><path id="path1" d="M194.330 0.490 C 183.170 3.087,175.486 12.440,175.067 23.938 C 174.950 27.151,174.893 27.500,174.488 27.500 C 173.567 27.500,164.809 29.826,160.912 31.106 C 116.378 45.732,83.698 84.159,76.383 130.500 C 75.554 135.751,75.222 140.100,74.876 150.250 C 74.305 167.009,73.058 181.314,70.605 199.250 C 61.746 264.044,45.735 309.364,26.688 323.561 C 25.759 324.253,25.000 324.860,25.000 324.909 C 25.000 324.959,79.964 325.000,147.143 325.000 L 269.286 325.000 268.622 324.188 C 262.742 316.992,257.426 307.635,255.485 301.063 L 255.171 300.000 163.710 300.000 C 113.407 300.000,72.250 299.934,72.250 299.853 C 72.250 299.772,72.770 298.394,73.405 296.791 C 83.373 271.632,91.640 235.373,96.613 195.000 C 98.793 177.299,99.597 166.860,100.242 147.875 C 101.524 110.114,121.668 77.969,154.621 61.099 C 164.917 55.828,170.868 53.969,189.362 50.247 L 200.122 48.082 211.374 50.385 C 229.449 54.084,235.822 56.111,245.932 61.375 C 278.565 78.367,298.447 110.324,299.749 147.875 C 300.463 168.473,301.654 182.644,304.345 202.570 C 305.314 209.750,305.045 209.076,306.762 208.617 C 312.053 207.203,318.124 206.500,325.038 206.500 C 330.068 206.500,330.446 206.469,330.351 206.063 C 330.104 205.003,328.456 192.279,327.769 186.125 C 326.165 171.755,325.591 163.957,325.126 150.250 C 324.695 137.513,324.108 131.885,322.369 123.812 C 312.260 76.867,276.465 39.967,229.894 28.482 C 227.704 27.942,225.707 27.500,225.456 27.500 C 225.043 27.500,225.000 27.246,225.000 24.772 C 225.000 13.601,217.615 3.873,206.750 0.730 C 204.021 -0.060,197.255 -0.190,194.330 0.490 M150.071 353.188 C 151.463 384.141,182.180 406.344,212.723 398.475 C 233.718 393.067,250.000 372.818,250.000 352.116 L 250.000 350.000 199.964 350.000 L 149.928 350.000 150.071 353.188 " stroke="none" fill="#040404" fill-rule="evenodd"></path><path id="path2" d="" stroke="none" fill="#680404" fill-rule="evenodd"></path><path id="path3" d="M319.813 206.672 C 320.053 206.735,320.447 206.735,320.688 206.672 C 320.928 206.609,320.731 206.558,320.250 206.558 C 319.769 206.558,319.572 206.609,319.813 206.672 M329.190 206.677 C 329.501 206.737,329.951 206.734,330.190 206.672 C 330.429 206.609,330.175 206.560,329.625 206.563 C 329.075 206.566,328.879 206.617,329.190 206.677 " stroke="none" fill="#a20404" fill-rule="evenodd"></path><path id="path4" d="" stroke="none" fill="#240404" fill-rule="evenodd"></path></g></svg>